<?xml version="1.0" encoding="UTF-8"?>
<svg version="1.1" xmlns="http://www.w3.org/2000/svg" width="512" height="512">
<path d="M0 0 C1.01790619 0.00215515 2.03581238 0.0043103 3.08456421 0.00653076 C17.69363523 0.05620146 32.02575853 0.30709809 46.375 3.3125 C47.34985352 3.51117676 48.32470703 3.70985352 49.32910156 3.91455078 C88.38660539 12.08468046 124.82400319 27.71035417 156.375 52.3125 C157.25929688 52.98539063 158.14359375 53.65828125 159.0546875 54.3515625 C174.64162389 66.45260257 189.26666068 80.75087979 201.375 96.3125 C202.15101563 97.2715625 202.92703125 98.230625 203.7265625 99.21875 C238.25804162 142.62975232 256.81395322 197.76040062 256.69067383 253.03979492 C256.6875221 255.97938487 256.71104926 258.9179558 256.73632812 261.85742188 C256.78098737 275.23056192 255.57551542 288.12666711 253.375 301.3125 C253.09281616 303.01805054 253.09281616 303.01805054 252.80493164 304.75805664 C245.77946967 343.86954746 228.79665906 381.05202178 204.375 412.3125 C203.61574219 413.28445313 202.85648437 414.25640625 202.07421875 415.2578125 C189.73986402 430.63741644 175.93895499 445.19015196 160.375 457.3125 C159.43914062 458.07691406 158.50328125 458.84132813 157.5390625 459.62890625 C125.58628299 485.2157721 86.41988322 501.72551276 46.375 509.3125 C45.56562988 509.47621094 44.75625977 509.63992188 43.92236328 509.80859375 C13.88110013 515.67977137 -20.7615176 514.58512909 -50.625 508.3125 C-52.14794678 507.99901611 -52.14794678 507.99901611 -53.70166016 507.67919922 C-90.84546555 499.78695344 -125.70945445 483.68345578 -155.625 460.3125 C-156.59695312 459.55324219 -157.56890625 458.79398437 -158.5703125 458.01171875 C-173.94991644 445.67736402 -188.50265196 431.87645499 -200.625 416.3125 C-201.77162109 414.90871094 -201.77162109 414.90871094 -202.94140625 413.4765625 C-228.5282721 381.52378299 -245.03801276 342.35738322 -252.625 302.3125 C-252.78871094 301.50312988 -252.95242187 300.69375977 -253.12109375 299.85986328 C-258.59069558 271.87335724 -258.46977511 238.21828161 -252.625 210.3125 C-252.42632324 209.33764648 -252.22764648 208.36279297 -252.02294922 207.35839844 C-241.93598313 159.13741149 -219.89911449 114.53770064 -185.40722656 79.14160156 C-183.63301167 77.32072238 -181.87518486 75.48496071 -180.1171875 73.6484375 C-173.01832106 66.31138736 -165.60682072 59.74213624 -157.41796875 53.64794922 C-155.58092428 52.27967127 -153.75911069 50.89264471 -151.9375 49.50390625 C-143.51077324 43.13790222 -134.81596417 37.50688619 -125.625 32.3125 C-124.99464844 31.94946777 -124.36429688 31.58643555 -123.71484375 31.21240234 C-85.96656579 9.60246645 -43.19754839 -0.16448837 0 0 Z M-42.625 52.3125 C-43.32109375 52.93769531 -44.0171875 53.56289063 -44.734375 54.20703125 C-73.54930064 81.58121061 -89.75931852 125.31626283 -97.625 163.3125 C-97.625 163.9725 -97.625 164.6325 -97.625 165.3125 C-70.565 165.3125 -43.505 165.3125 -15.625 165.3125 C-15.625 122.7425 -15.625 80.1725 -15.625 36.3125 C-25.27720422 36.3125 -35.91445038 46.26667464 -42.625 52.3125 Z M16.375 36.3125 C16.375 78.8825 16.375 121.4525 16.375 165.3125 C43.435 165.3125 70.495 165.3125 98.375 165.3125 C95.88531509 154.10891788 93.45917659 143.47729491 89.8125 132.6875 C89.60012695 132.05518463 89.38775391 131.42286926 89.16894531 130.77139282 C76.8704947 94.35460423 57.35524779 56.20106884 22.125 37.52734375 C19.41870396 36.110456 19.41870396 36.110456 16.375 36.3125 Z M85.375 50.3125 C85.76429688 50.89773437 86.15359375 51.48296875 86.5546875 52.0859375 C106.47051651 82.64801612 119.69746021 115.79906159 128.55053711 151.12133789 C129.77603462 155.86474268 131.08594668 160.58597118 132.375 165.3125 C156.135 165.3125 179.895 165.3125 204.375 165.3125 C197.61785542 150.55318219 197.61785542 150.55318219 189.625 136.625 C189.12750244 135.8508374 188.63000488 135.0766748 188.11743164 134.27905273 C179.81579334 121.62283838 169.80409245 110.24548711 159.375 99.3125 C158.50488281 98.38953125 157.63476562 97.4665625 156.73828125 96.515625 C149.81028045 89.35500519 142.3395334 83.27006707 134.375 77.3125 C133.81441895 76.88582031 133.25383789 76.45914063 132.67626953 76.01953125 C110.71547735 58.86200757 110.71547735 58.86200757 85.375 50.3125 Z M-144.625 86.3125 C-145.53507812 87.09238281 -146.44515625 87.87226562 -147.3828125 88.67578125 C-149.84566132 90.84166276 -152.24495399 93.05594694 -154.625 95.3125 C-155.3684668 96.01511963 -155.3684668 96.01511963 -156.12695312 96.73193359 C-164.47233145 104.67423927 -171.75706378 113.07355198 -178.625 122.3125 C-179.0487793 122.87018066 -179.47255859 123.42786133 -179.90917969 124.00244141 C-189.66699281 136.85410381 -196.94718856 150.62131483 -203.625 165.3125 C-179.865 165.3125 -156.105 165.3125 -131.625 165.3125 C-130.305 160.3625 -128.985 155.4125 -127.625 150.3125 C-118.68756232 117.26120477 -107.35026727 85.93546444 -88.71044922 57.00976562 C-87.30078166 54.80553511 -85.95627494 52.56475531 -84.625 50.3125 C-104.06310414 50.3125 -130.54966251 74.1550397 -144.625 86.3125 Z M-215.625 198.3125 C-225.23816674 236.76516696 -226.10663595 275.87983485 -215.625 314.3125 C-189.555 314.3125 -163.485 314.3125 -136.625 314.3125 C-137.285 306.0625 -137.945 297.8125 -138.625 289.3125 C-140.54504748 258.78374507 -139.1612924 228.74800884 -136.625 198.3125 C-162.695 198.3125 -188.765 198.3125 -215.625 198.3125 Z M-103.625 198.3125 C-105.01153908 208.01827359 -106.14568902 217.33383932 -106.75 227.0625 C-106.79169312 227.72991211 -106.83338623 228.39732422 -106.87634277 229.08496094 C-108.03467436 247.96677117 -107.92920122 266.68616582 -106.75 285.5625 C-106.63253418 287.45355469 -106.63253418 287.45355469 -106.51269531 289.3828125 C-105.93081315 297.81898909 -104.83109157 305.86985898 -103.625 314.3125 C-74.585 314.3125 -45.545 314.3125 -15.625 314.3125 C-15.625 276.0325 -15.625 237.7525 -15.625 198.3125 C-44.665 198.3125 -73.705 198.3125 -103.625 198.3125 Z M16.375 198.3125 C16.375 236.5925 16.375 274.8725 16.375 314.3125 C45.415 314.3125 74.455 314.3125 104.375 314.3125 C105.97368202 303.54004314 105.97368202 303.54004314 107.0078125 292.7890625 C107.09192383 291.51417969 107.17603516 290.23929687 107.26269531 288.92578125 C107.38016113 286.95158203 107.38016113 286.95158203 107.5 284.9375 C107.54169312 284.24285645 107.58338623 283.54821289 107.62634277 282.83251953 C108.71757803 264.37517494 108.6075175 246.13970457 107.5 227.6875 C107.42168945 226.37136719 107.34337891 225.05523437 107.26269531 223.69921875 C107.17858398 222.42433594 107.09447266 221.14945313 107.0078125 219.8359375 C106.89783936 218.164104 106.89783936 218.164104 106.78564453 216.45849609 C106.1842275 210.38640091 105.23792575 204.35298024 104.375 198.3125 C75.335 198.3125 46.295 198.3125 16.375 198.3125 Z M137.375 198.3125 C138.035 206.2325 138.695 214.1525 139.375 222.3125 C141.23468366 253.18324878 139.94033232 283.52851214 137.375 314.3125 C163.445 314.3125 189.515 314.3125 216.375 314.3125 C225.98816674 275.85983304 226.85663595 236.74516515 216.375 198.3125 C190.305 198.3125 164.235 198.3125 137.375 198.3125 Z M-203.625 347.3125 C-196.86785542 362.07181781 -196.86785542 362.07181781 -188.875 376 C-188.12875366 377.1612439 -188.12875366 377.1612439 -187.36743164 378.34594727 C-179.06579334 391.00216162 -169.05409245 402.37951289 -158.625 413.3125 C-157.75488281 414.23546875 -156.88476562 415.1584375 -155.98828125 416.109375 C-149.06028045 423.26999481 -141.5895334 429.35493293 -133.625 435.3125 C-133.06441895 435.73917969 -132.50383789 436.16585937 -131.92626953 436.60546875 C-119.86757511 445.75951415 -106.77019744 452.98505604 -93.125 459.5 C-92.49601807 459.80381592 -91.86703613 460.10763184 -91.21899414 460.4206543 C-89.71598419 461.11607681 -88.17283632 461.72355679 -86.625 462.3125 C-85.965 461.9825 -85.305 461.6525 -84.625 461.3125 C-85.18445313 460.54292969 -85.74390625 459.77335937 -86.3203125 458.98046875 C-108.64938779 427.36185257 -121.73076749 389.84355698 -129.93359375 352.27734375 C-130.48272232 349.40339185 -130.48272232 349.40339185 -131.625 347.3125 C-155.385 347.3125 -179.145 347.3125 -203.625 347.3125 Z M-97.625 347.3125 C-95.13531509 358.51608212 -92.70917659 369.14770509 -89.0625 379.9375 C-88.85012695 380.56981537 -88.63775391 381.20213074 -88.41894531 381.85360718 C-76.1204947 418.27039577 -56.60524779 456.42393116 -21.375 475.09765625 C-18.66870396 476.514544 -18.66870396 476.514544 -15.625 476.3125 C-15.625 433.7425 -15.625 391.1725 -15.625 347.3125 C-42.685 347.3125 -69.745 347.3125 -97.625 347.3125 Z M16.375 347.3125 C16.375 389.8825 16.375 432.4525 16.375 476.3125 C35.3740077 472.51269846 50.85326434 454.62833862 61.375 439.3125 C77.63265202 414.58878227 98.375 377.54148757 98.375 347.3125 C71.315 347.3125 44.255 347.3125 16.375 347.3125 Z M132.375 347.3125 C131.055 352.2625 129.735 357.2125 128.375 362.3125 C119.43756232 395.36379523 108.10026727 426.68953556 89.46044922 455.61523438 C88.05078166 457.81946489 86.70627494 460.06024469 85.375 462.3125 C92.14985007 460.30342775 98.26670464 457.56084125 104.5 454.25 C105.41724854 453.76466797 106.33449707 453.27933594 107.27954102 452.77929688 C125.43615029 443.02132882 141.50738506 430.5336969 156.375 416.3125 C157.32375 415.405 158.2725 414.4975 159.25 413.5625 C165.45167403 407.49864095 171.07501835 401.17552709 176.375 394.3125 C176.79749023 393.77173828 177.21998047 393.23097656 177.65527344 392.67382812 C183.3691506 385.31966337 188.49906672 377.73681157 193.1875 369.6875 C193.83501221 368.57955078 193.83501221 368.57955078 194.49560547 367.44921875 C198.23897908 360.87212997 201.17029586 354.25602564 204.375 347.3125 C180.615 347.3125 156.855 347.3125 132.375 347.3125 Z " fill="#4047DA" transform="translate(255.625,-0.3125)"/>
</svg>
